<svg xmlns="http://www.w3.org/2000/svg" viewBox="0 0 540 540">
  <path d="M254.12,321.09c-0.05-15.63-12.76-28.26-28.39-28.21s-28.26,12.76-28.21,28.39 12.76,28.26 28.39,28.21c7.47-0.02,14.64-3,19.92-8.29 5.4-5.28 8.39-12.55 8.29-20.1Z" fill="#fff"/>
  <path d="M225.7,354c-18.16-0.07-32.83-14.84-32.76-33s14.84-32.83 33-32.76c8.64,0.03 16.93,3.47 23.06,9.56 12.88,12.8 12.94,33.62 0.14,46.5-6.2,6.24-14.64,9.73-23.44,9.7Zm0-56.79c-13.16,0.07-23.77,10.8-23.7,23.96s10.8,23.77 23.96,23.7c13.16-0.07 23.77-10.8 23.7-23.96-0.03-6.27-2.53-12.27-6.96-16.7-4.44-4.61-10.6-7.15-17-7.03Z"/>
  <path d="M204.78,362c-0.55,0-1.1-0.11-1.61-0.33-4-1.73-7.64-4.21-10.72-7.3-2.55-2.67-4.7-5.7-6.37-9-1.02-2-0.22-4.46 1.78-5.47 2-1.02 4.46-0.22 5.48,1.79 1.3,2.56 2.96,4.92 4.94,7 2.33,2.33 5.08,4.2 8.11,5.51 2.07,0.89 3.02,3.28 2.13,5.35-0.64,1.5-2.12,2.47-3.74,2.46Z"/>
  <path d="M286.88,321.09c0.05-15.63 12.76-28.26 28.39-28.21s28.26,12.76 28.21,28.39-12.76,28.26-28.39,28.21c-7.47-0.02-14.64-3-19.92-8.29-5.4-5.28-8.4-12.55-8.29-20.1Z" fill="#fff"/>
  <path d="M315.29,354c-18.18-0.01-32.91-14.76-32.89-32.95 0-8.69 3.45-17.03 9.58-23.19 12.84-12.87 33.68-12.9 46.56-0.06 12.87,12.84 12.9,33.68 0.06,46.56-6.18,6.2-14.58,9.68-23.34,9.67Zm-17-49.81c-9.43,9.37-9.47,24.61-0.1,34.04 9.37,9.43 24.61,9.47 34.04,0.1s9.47-24.61 0.1-34.04c-4.51-4.54-10.64-7.09-17.04-7.1-6.38-0.13-12.52,2.4-16.96,6.97Z"/>
  <path d="M336.21,362c-2.25,0-4.07-1.82-4.07-4.07 0-1.63 0.97-3.1 2.46-3.74 3.06-1.32 5.83-3.22 8.18-5.58 1.95-2.07 3.59-4.41 4.87-6.95 1.02-2 3.47-2.8 5.48-1.79 2,1.02 2.8,3.47 1.78,5.47-1.65,3.29-3.77,6.32-6.3,9-3.09,3.12-6.76,5.62-10.79,7.37-0.51,0.2-1.06,0.29-1.61,0.28Z"/>
</svg>
