<svg xmlns="http://www.w3.org/2000/svg" viewBox="0 0 540 540">
  <path d="M230.55,311.35c-5.37-5.43-14.13-5.47-19.56-0.1-5.43,5.37-5.47,14.13-0.1,19.56 5.37,5.43 14.13,5.47 19.56,0.1 2.62-2.59 4.1-6.13 4.1-9.82 0.06-3.66-1.39-7.18-4-9.74Z" fill="#fff"/>
  <path d="M220.81,338.48c-9.57-0.05-17.29-7.85-17.24-17.42s7.85-17.29 17.42-17.24c9.57,0.05 17.29,7.85 17.24,17.42-0.02,4.56-1.85,8.93-5.07,12.16-3.25,3.31-7.71,5.14-12.35,5.08Zm0-27.47c-5.52,0.04-9.97,4.54-9.93,10.07 0.04,5.52 4.54,9.97 10.07,9.93 5.52-0.04 9.97-4.54 9.93-10.07-0.02-2.63-1.07-5.15-2.94-7.01-1.87-1.91-4.45-2.97-7.13-2.93Z"/>
  <path d="M310.44,311.35c5.37-5.43 14.13-5.47 19.56-0.1s5.47,14.13 0.1,19.56-14.13,5.47-19.56,0.1c-2.62-2.59-4.1-6.13-4.1-9.82-0.05-3.66 1.39-7.18 4-9.74Z" fill="#fff"/>
  <path d="M320.18,338.48c-9.57-0.05-17.29-7.85-17.24-17.42s7.85-17.29 17.42-17.24c9.57,0.05 17.29,7.85 17.24,17.42-0.02,4.56-1.85,8.93-5.07,12.16-3.25,3.31-7.71,5.14-12.35,5.08Zm0-27.47c-5.52,0.04-9.97,4.54-9.93,10.07 0.04,5.52 4.54,9.97 10.07,9.93 5.52-0.04 9.97-4.54 9.93-10.07-0.02-2.63-1.07-5.15-2.94-7.01-1.87-1.92-4.45-2.98-7.13-2.93Z"/>
</svg>
