<svg xmlns="http://www.w3.org/2000/svg" viewBox="0 0 540 540">
  <path d="M209.23,302.61c-.25.25-.49.51-.74.77l-4.02-2.93c-.09-.07-.17-.13-.26-.19-2.51-1.71-5.93-1.07-7.64,1.44-1.71,2.51-1.07,5.93,1.44,7.64l4.87,3.54c-.87,2.63-1.34,5.4-1.34,8.22-.1,6.87,2.62,13.47,7.53,18.28,10.11,10.2,26.57,10.28,36.77.17s10.28-26.57.17-36.77-26.57-10.28-36.77-.17h-.01Z" fill="#020101"/>
  <path d="M344.2,301.38c-1.86-2.4-5.31-2.84-7.72-.98l-4.04,2.93c-.23-.24-.46-.49-.7-.72-10.21-10.1-26.67-10.02-36.77.19s-10.02,26.67.19,36.77,26.67,10.02,36.77-.19c4.9-4.81,7.62-11.41,7.52-18.28,0-2.84-.47-5.64-1.36-8.28l4.85-3.53c.09-.06.18-.13.26-.19,2.4-1.86,2.84-5.31.98-7.72h.02Z" fill="#020101"/>
</svg>
