<svg xmlns="http://www.w3.org/2000/svg" viewBox="0 0 540 540">
    <path d="M243.55,302.78c-10.11-10.2-26.57-10.28-36.77-.17-4.93,4.89-7.71,11.55-7.7,18.49-.04,2.57.32,5.11,1.05,7.53l-4.63,5.87c-.04.06-.04.14,0,.2.03.07.09.12.17.12l7.9.94c.12.17.23.33.35.49l-2.15,7.67c-.03.06-.03.14,0,.2.05.05.13.07.2.05l7.7-2.16c.15.11.31.22.46.33l.95,7.93c0,.07.06.13.13.16h.08s.09-.04.13-.08l5.61-4.56c8.96,2.91,19.2.84,26.35-6.25,10.2-10.11,10.28-26.57.17-36.77h0Z" stroke-width="0"/>
    <path d="M345.45,334.58l-4.62-5.85c.74-2.45,1.11-5.02,1.08-7.63,0-6.94-2.77-13.6-7.7-18.49-10.2-10.11-26.66-10.03-36.77.17-10.11,10.2-10.03,26.66.17,36.77,7.14,7.07,17.34,9.15,26.29,6.27l5.68,4.62s.09.02.13,0l.04.08c.07-.03.12-.09.13-.16l.96-7.99c.13-.09.26-.18.39-.28l7.75,2.17c.07.02.15,0,.2-.05.03-.06.03-.14,0-.2l-2.14-7.7c.11-.15.22-.31.33-.47l7.91-.95c.08,0,.14-.05.17-.12.04-.06.04-.14,0-.2h0Z" stroke-width="0"/>
</svg>
