<svg xmlns="http://www.w3.org/2000/svg" viewBox="0 0 540 540">
  <path d="M342.31,323.05c-2.44-13.58-14.27-23.46-28.07-23.46-15.74,0-28.49,12.78-28.48,28.52v.32c0,3.38,2.75,6.12,6.12,6.11h.01c3.37,0,6.11-2.74,6.11-6.11v-.32c0-4.31,1.7-8.45,4.74-11.51,6.34-6.37,16.64-6.39,23.01-.05,2.37,2.28,3.95,5.26,4.51,8.5.62,3.18,3.61,5.32,6.82,4.88,3.34-.46,5.68-3.54,5.23-6.88Z"/>
  <path d="M209.23,302.61c-4.93,4.89-7.71,11.55-7.7,18.49-.1,6.87,2.62,13.47,7.53,18.28,10.11,10.2,26.57,10.28,36.77.17s10.28-26.57.17-36.77c-10.11-10.2-26.57-10.28-36.77-.17Z"/>
</svg>
