<svg xmlns="http://www.w3.org/2000/svg" viewBox="0 0 540 540">
  <g id="left-eye">
    <path d="M201.32 331.48c-4.05 0.04-7.36-3.22-7.4-7.26-0.03-3.33 2.19-6.26 5.4-7.14l45.26-12.55c3.9-1.08 7.94 1.2 9.03 5.1 1.08 3.9-1.2 7.94-5.11 9.03l-45.26 12.55c-0.63 0.17-1.27 0.26-1.92 0.27z" fill="#020101" />
    <path d="M223.91 451.33h1.4c-0.14-0.07-0.3-0.1-0.46-0.1h-1.41v0.14h0.47z" fill="#00efff" />
    <path d="M238.07 314.45l-27.38 6v69.89c-1.44 0.71-2.82 1.55-4.12 2.5-0.43 0.29-0.85 0.59-1.26 0.92s-1.08 0.86-1.61 1.32l-1.53 1.47c-0.35 0.35-0.69 0.7-1 1.06s-0.67 0.73-1 1.1l-0.63 0.79c-2.56 3.13-4.44 6.76-5.52 10.65-0.82 2.87-1.24 5.84-1.25 8.82v0.17c0.03 17.16 13.54 31.28 30.68 32.06h1.41c0.16 0 0.32 0.03 0.46 0.1 17.14-0.78 30.65-14.9 30.68-32.06v-0.16c0-2.98-0.42-5.95-1.24-8.82-1.08-3.9-2.96-7.53-5.52-10.66l-0.63-0.79c-0.32-0.37-0.64-0.73-1-1.1l-1-1.06c-0.5-0.5-1.01-0.99-1.53-1.47-0.53-0.46-1.06-0.9-1.61-1.32-0.4-0.33-0.82-0.64-1.26-0.92-1.3-0.95-2.67-1.79-4.11-2.5l-0.03-75.99z" fill="#00efff" />
    <path d="M223.91 454.39h-0.47c-0.37 0-0.73-0.07-1.07-0.2-18.38-1.34-32.62-16.63-32.66-35.06v-0.13c0-3.27 0.46-6.53 1.36-9.68 1.2-4.28 3.27-8.27 6.08-11.72l0.68-0.85c0.34-0.4 0.7-0.8 1.06-1.2l1.12-1.14c0.54-0.54 1.08-1.05 1.62-1.56s1.22-1 1.81-1.49c0.42-0.33 0.9-0.68 1.39-1 0.9-0.66 1.83-1.26 2.8-1.82v-70.54l33.49-7.33v78c0.97 0.55 1.9 1.16 2.8 1.82 0.49 0.33 1 0.68 1.43 1s1.13 0.91 1.7 1.4c0.55 0.5 1.08 1 1.61 1.54l1.07 1.09 0.05 0.05c0.37 0.4 0.72 0.8 1.06 1.2l0.7 0.87c2.81 3.46 4.87 7.45 6.07 11.74 0.89 3.13 1.35 6.37 1.36 9.62v0.18c-0.04 18.77-14.8 34.22-33.55 35.11h-0.17l-1.34 0.1z" fill="#00efff" />
    <path d="M211 402c-5.25 0-9.51 4.25-9.52 9.5 0 5.25 4.25 9.51 9.5 9.52 5.25 0 9.51-4.25 9.52-9.5v-0.02c0.02-2.52-0.98-4.95-2.77-6.72-1.76-1.82-4.2-2.82-6.73-2.78z" fill="#fff" />
  </g>
  <g id="right-eye">
    <path d="M359.68 331.48c-0.68 0-1.35-0.09-2-0.27l-45.26-12.55c-3.9-1.08-6.19-5.12-5.11-9.03 1.08-3.9 5.12-6.19 9.03-5.1l45.26 12.55c3.9 1.07 6.2 5.1 5.13 9-0.87 3.19-3.78 5.4-7.08 5.4h0.03z" fill="#020101" />
    <path d="M337.08 451.33h-1.4c0.15-0.07 0.31-0.1 0.47-0.1h1.4v0.14h-0.47z" fill="#00efff" />
    <path d="M322.93 314.45l27.37 6v69.89c1.44 0.71 2.82 1.55 4.12 2.5 0.43 0.29 0.85 0.59 1.26 0.92s1.08 0.86 1.61 1.32 1 1 1.53 1.47 0.7 0.7 1 1.06 0.66 0.73 1 1.1l0.64 0.79c2.55 3.13 4.43 6.76 5.52 10.65 0.82 2.87 1.23 5.84 1.24 8.82v0.17c-0.03 17.16-13.54 31.28-30.68 32.06h-1.4c-0.16 0-0.32 0.03-0.47 0.1-17.14-0.78-30.65-14.9-30.68-32.06v-0.16c0-2.98 0.42-5.95 1.24-8.82 1.09-3.89 2.97-7.52 5.52-10.66l0.64-0.79c0.31-0.37 0.63-0.73 1-1.1l1-1.06c0.5-0.5 1.01-0.99 1.53-1.47 0.53-0.46 1.07-0.9 1.61-1.32s0.83-0.63 1.26-0.92c1.3-0.95 2.68-1.79 4.12-2.5v-75.99z" fill="#00efff" />
    <path d="M337.55 454.39h-2.07c-18.75-0.89-33.5-16.34-33.53-35.11v-0.16c0-3.27 0.46-6.53 1.36-9.67 1.2-4.28 3.27-8.27 6.08-11.72l0.68-0.86c0.34-0.4 0.69-0.79 1.05-1.19l1.07-1.09c0.53-0.53 1.07-1 1.61-1.54 0.57-0.5 1.15-1 1.74-1.43 0.42-0.33 0.9-0.68 1.39-1 0.9-0.66 1.83-1.27 2.8-1.82v-78l33.49 7.33v70.52c0.96 0.56 1.9 1.16 2.8 1.82 0.49 0.32 1 0.67 1.43 1s1.13 0.91 1.71 1.41 1.15 1.08 1.68 1.61l1.08 1.1c0.41 0.44 0.76 0.84 1.1 1.24l0.69 0.86c2.81 3.46 4.88 7.46 6.08 11.75 0.9 3.13 1.35 6.37 1.35 9.62v0.18c-0.03 18.43-14.27 33.72-32.65 35.06-0.31 0.08-0.62 0.11-0.94 0.09z" fill="#00efff" />
    <path d="M349 402c5.25 0 9.5 4.25 9.5 9.5s-4.25 9.5-9.5 9.5-9.5-4.25-9.5-9.5c-0.02-2.52 0.98-4.95 2.78-6.72 1.76-1.82 4.19-2.83 6.72-2.78z" fill="#fff" />
  </g>
</svg>