<svg xmlns="http://www.w3.org/2000/svg" viewBox="0 0 540 540">
  <path d="M209.23,302.61c-3.09,3.06-5.33,6.82-6.58,10.91h-7.65c-.74-.05-1.45.34-1.8,1-.38.68-.35,1.51.07,2.16l10.36,16c.23.34.56.58.93.73,1.18,2.18,2.69,4.2,4.5,5.97,10.11,10.2,26.57,10.28,36.77.17s10.28-26.57.17-36.77-26.57-10.28-36.77-.17Z" />
  <path d="M347.81,314.52c-.36-.66-1.06-1.05-1.81-1h-7.67c-1.24-4.09-3.49-7.85-6.58-10.91-10.21-10.1-26.67-10.02-36.77.19s-10.02,26.67.19,36.77,26.67,10.02,36.77-.19c1.8-1.77,3.31-3.79,4.49-5.97.37-.15.71-.39.95-.73l10.36-16c.41-.65.44-1.48.07-2.16h0Z" />
</svg>
