<svg xmlns="http://www.w3.org/2000/svg" viewBox="0 0 540 540">
  <path d="M241.45,335.21c-2.12,0-4.14-.92-5.53-2.52-10.15-11.65-21.31-16.32-34.11-14.3-4,.64-7.76-2.08-8.4-6.07-.64-4,2.08-7.76,6.07-8.4h.04c17.95-2.84,33.92,3.6,47.46,19.15,2.66,3.06,2.33,7.7-.73,10.35-1.33,1.15-3.03,1.79-4.8,1.8Z" fill="#020101"/>
  <path d="M299.54,335.21c-4.05-.01-7.33-3.31-7.32-7.36,0-1.76.64-3.46,1.8-4.79,13.54-15.55,29.5-22,47.45-19.15,4,.62,6.74,4.37,6.12,8.37s-4.37,6.74-8.37,6.12h-.04c-12.8-2-24,2.65-34.11,14.3-1.39,1.6-3.41,2.52-5.53,2.52Z" fill="#020101"/>
</svg>
