<svg xmlns="http://www.w3.org/2000/svg" viewBox="0 0 540 540">
  <path d="M222.91,339.63c-15.71.02-28.46-12.69-28.48-28.4v-.41c.14-3.38,2.99-6,6.36-5.87,3.19.13,5.74,2.68,5.87,5.87v.33c.03,8.99,7.35,16.25,16.34,16.22,7.79-.03,14.47-5.57,15.93-13.22.87-3.26,4.21-5.2,7.47-4.34,2.83.75,4.73,3.41,4.53,6.34-2.47,13.56-14.28,23.42-28.07,23.42h.05Z" fill="#020101"/>
  <path d="M318.08,339.63c-13.78,0-25.59-9.86-28.06-23.42-.24-3.37,2.3-6.29,5.66-6.53,2.92-.21,5.58,1.69,6.34,4.53.55,3.24,2.13,6.22,4.51,8.5,6.35,6.35,16.64,6.35,23,0,3.05-3.05,4.77-7.2,4.76-11.51v-.33c0-3.37,2.74-6.11,6.11-6.11s6.11,2.74,6.11,6.11v.33c.02,15.71-12.69,28.46-28.4,28.48h-.08l.05-.05Z" fill="#020101"/>
</svg>
