<svg xmlns="http://www.w3.org/2000/svg" viewBox="0 0 540 540">
  <path d="M241,330.73c-.74,0-1.47-.11-2.17-.33l-39.56-12.25c-3.84-1.27-5.93-5.42-4.65-9.26,1.24-3.74,5.21-5.83,8.99-4.74l39.56,12.25c3.87,1.18,6.05,5.28,4.87,9.15-.95,3.09-3.8,5.2-7.04,5.19h0Z" fill="#020101"/>
  <path d="M300,330.73c-4.05-.02-7.32-3.32-7.3-7.38.02-3.19,2.09-6,5.13-6.96l39.56-12.25c3.84-1.27,7.99.81,9.26,4.65,1.27,3.84-.81,7.99-4.65,9.26-.09.03-.18.06-.27.08l-39.56,12.25c-.7.22-1.43.33-2.17.34h0Z" fill="#020101"/>
</svg>
