<svg xmlns="http://www.w3.org/2000/svg" viewBox="0 0 540 540">
  <path d="M227.31,295.3c-12.42,0.01-22.9,8.83-25.28,20.73-1.39-0.2-2.79,0.59-3.3,1.96-0.59,1.58,0.22,3.34,1.8,3.93l46.67,17.25c0.34,0.13,0.7,0.19,1.06,0.19,1.3,0.01,2.46-0.8,2.9-2.02,0.49-1.37-0.06-2.85-1.23-3.6,2.16-3.85,3.3-8.2,3.23-12.65-0.02-14.26-11.59-25.81-25.85-25.79Z" fill="#020101" />
  <path d="M342.25,317.99c-0.51-1.37-1.9-2.16-3.3-1.96-2.38-11.9-12.86-20.72-25.28-20.73-14.26-0.02-25.83,11.53-25.85,25.79-0.07,4.45,1.07,8.82,3.23,12.66-0.84,0.55-1.37,1.49-1.38,2.52-0.02,1.69,1.34,3.07,3.03,3.09,0.36,0,0.72-0.06,1.06-0.19l46.67-17.25c1.58-0.59,2.39-2.34,1.8-3.93Z" fill="#020101" />
</svg>
