<svg xmlns="http://www.w3.org/2000/svg" viewBox="0 0 540 540">
  <path d="M208.44,335.22c-2.71,0-5.42-.22-8.1-.65-4-.63-6.73-4.39-6.1-8.39s4.39-6.73,8.39-6.1c12.81,2,24-2.65,34.1-14.3,2.56-3.14,7.18-3.62,10.33-1.06,3.14,2.56,3.62,7.18,1.06,10.33-.1.13-.21.25-.33.38-11.46,13.16-24.67,19.8-39.35,19.8Z" fill="#020101"/>
  <path d="M332.55,335.22c-14.68,0-27.88-6.64-39.35-19.8-2.56-3.14-2.08-7.77,1.06-10.33,2.99-2.44,7.37-2.14,10,.69,10.15,11.65,21.31,16.32,34.1,14.3,4.02-.5,7.69,2.36,8.19,6.38.47,3.83-2.1,7.37-5.89,8.11-2.68.43-5.39.64-8.11.65Z" fill="#020101"/>
</svg>
