<svg xmlns="http://www.w3.org/2000/svg" viewBox="0 0 540 540">
  <path d="M245,333.11c-3.37,0-6.1-2.74-6.11-6.11v-.33c-.02-8.99-7.32-16.27-16.31-16.25-4.3,0-8.41,1.71-11.46,4.75-2.37,2.28-3.95,5.25-4.5,8.49-.87,3.26-4.21,5.2-7.47,4.34-2.83-.75-4.73-3.41-4.53-6.34,2.82-15.49,17.65-25.76,33.14-22.94,13.53,2.46,23.38,14.24,23.4,27.99v.33c-.02,3.37-2.78,6.09-6.15,6.07h-.01Z" fill="#020101"/>
  <path d="M296,333.11c-3.37,0-6.1-2.74-6.11-6.11v-.33c.02-15.74,12.8-28.48,28.54-28.46,13.76.02,25.54,9.86,28,23.4.57,3.33-1.67,6.48-5,7.05-3.33.57-6.48-1.67-7.05-5-.55-3.24-2.13-6.22-4.51-8.5-6.36-6.35-16.66-6.33-23.01.03-3.04,3.05-4.75,7.18-4.75,11.48v.33c0,3.37-2.74,6.11-6.11,6.11Z" fill="#020101"/>
</svg>
