<svg xmlns="http://www.w3.org/2000/svg" viewBox="0 0 540 540">
  <path d="M238.29,314.24c.14.17.3.32.49.43l2.59,2.69,1.75,3.06h.06l.41,1,.75,2.62.16,1.06v.43l.06,10c0,1.52.62,2.97,1.74,4,1.05,1.09,2.49,1.7,4,1.69,3.15-.04,5.7-2.58,5.74-5.73.06-3.03.06-5.31,0-6.84.03-2.3-.14-4.6-.49-6.87-.73-3.92-2.32-7.64-4.66-10.87-2.36-3.23-5.4-5.91-8.9-7.85-13.47-7.26-30.28-2.23-37.54,11.24-.82,1.52-1.5,3.11-2.02,4.76-.71,2.67-1.1,5.41-1.14,8.17,0,1.86,0,4.61.08,8.23,0,1.52.62,2.97,1.73,4,1.04,1.09,2.49,1.7,4,1.69,3.15-.05,5.69-2.58,5.75-5.73v-10.28c0-.16.04-.32.08-.47l.16-.76c.21-.92.36-1.63.47-2.12.17-.32.31-.66.43-1l1.2-2.37.65-1,3.2-3.19c.19-.16.25-.22.18-.19h.08l3-1.71h-.1l1.51-.51c.68-.24,1.38-.43,2.09-.55l1.08-.18h-.18c.49-.06.76-.08.81-.08l3,.08c.16.05.32.08.49.1l3.2.79.55.27c1.25.52,2.44,1.19,3.54,1.99Z"/>
  <path d="M302.7,314.24c-.14.17-.3.32-.49.43l-2.58,2.69-1.76,3.06h-.06l-.4,1-.76,2.62-.16,1.06v.43l-.06,10c0,1.52-.62,2.97-1.73,4-1.05,1.09-2.49,1.7-4,1.69-3.15-.04-5.7-2.58-5.74-5.73-.05-3.03-.05-5.31,0-6.84-.03-2.3.14-4.6.49-6.87.73-3.92,2.32-7.64,4.66-10.87,2.36-3.23,5.41-5.91,8.91-7.85,13.46-7.26,30.27-2.23,37.53,11.23.82,1.52,1.5,3.12,2.02,4.77.72,2.66,1.1,5.41,1.14,8.17,0,1.86,0,4.61-.08,8.23.02,1.52-.61,2.97-1.73,4-1.04,1.09-2.49,1.7-4,1.69-3.14-.06-5.68-2.59-5.75-5.73v-10.28c0-.16-.04-.32-.08-.47l-.16-.76c-.2-.92-.36-1.63-.47-2.12-.17-.32-.31-.66-.43-1l-1.2-2.37-.65-1-3.2-3.19c-.18-.16-.25-.22-.18-.19h-.08l-3-1.71h.1l-1.5-.51c-.68-.24-1.38-.43-2.1-.55l-1.08-.18h.18c-.49-.06-.76-.08-.81-.08l-3,.08c-.16.05-.32.08-.49.1l-3.19.79-.55.27c-1.26.52-2.46,1.19-3.56,1.99Z"/>
</svg>
