<svg xmlns="http://www.w3.org/2000/svg" viewBox="0 0 540 540">
  <path d="M261.64,337.82c2.55,4.93,5.61,7.4,9.18,7.39s6.63-2.47,9.18-7.39c2.52-4.99,3.78-10.99,3.78-18s-1.26-13-3.78-17.95c-2.55-4.92-5.61-7.38-9.18-7.39-3.57,0-6.63,2.46-9.18,7.39-2.51,4.99-3.76,10.98-3.77,17.95 0,6.97,1.25,12.97,3.77,18Z" />
  <path d="M375.35,337.82c-2.55,4.93-5.61,7.4-9.18,7.39s-6.62-2.47-9.17-7.39c-2.52-4.99-3.78-10.99-3.78-18s1.26-13,3.78-17.95c2.54-4.92,5.6-7.38,9.17-7.39s6.63,2.46,9.18,7.39c2.52,4.99,3.78,10.98,3.78,17.95s-1.26,12.97-3.78,18Z" />
</svg>
