<svg xmlns="http://www.w3.org/2000/svg" viewBox="0 0 540 540">
    <path d="M221.91,349.87c-19.09.06-34.61-15.38-34.67-34.47v-.12c-.02-4.14.61-8.26,1.87-12.2.77-2.36,3.29-3.64,5.65-2.88s3.65,3.29,2.88,5.65c-.97,3.05-1.45,6.23-1.43,9.43-.02,14.13,11.42,25.61,25.55,25.63h.15c12.15,0,22-9.85,22-22v-.06c0-5.47-1.57-9.87-4.81-13.45-3.06-3.53-7.57-5.47-12.24-5.27-4.19-.11-8.23,1.57-11.11,4.62-2.98,3.03-4.6,7.14-4.47,11.39-.15,2.97,1.01,5.87,3.18,7.91,1.89,1.79,4.4,2.77,7,2.72,2.12.04,4.19-.67,5.85-2,1.69-1.34,2.61-3.41,2.49-5.56,0-3.37-1.3-3.83-3.07-4.11-2.29-.35-2.83.18-3.34,2.09-.64,2.39-3.1,3.81-5.49,3.17s-3.81-3.1-3.17-5.49c1.73-6.42,6.72-9.65,13.38-8.63s10.57,5.78,10.65,12.92c.12,4.88-2.04,9.54-5.85,12.6-3.25,2.6-7.29,3.99-11.45,3.94-4.88.06-9.59-1.78-13.13-5.14-3.97-3.74-6.16-9-6-14.45-.14-6.59,2.39-12.95,7-17.65,4.55-4.78,10.89-7.43,17.49-7.32,7.23-.24,14.18,2.78,18.94,8.22,4.72,5.22,7.11,11.77,7.11,19.46,0,17.1-13.84,30.97-30.94,31Z" stroke-width="0"/>
    <path d="M319.08,349.87c-17.1-.03-30.94-13.9-30.94-31,0-7.69,2.4-14.24,7.12-19.47,4.79-5.44,11.76-8.45,19-8.21,6.58-.1,12.91,2.55,17.45,7.32,4.61,4.7,7.14,11.06,7,17.65.15,5.44-2.03,10.69-6,14.42-3.55,3.37-8.27,5.23-13.16,5.17-4.13.05-8.16-1.32-11.39-3.89-3.82-3.05-6.01-7.71-5.91-12.6.08-7.19,3.95-11.9,10.62-13s11.69,2.2,13.41,8.62c.64,2.39-.78,4.85-3.17,5.49s-4.85-.78-5.49-3.17c-.51-1.91-1-2.45-3.36-2.09-1.75.28-3,.74-3,4.15-.11,2.16.83,4.24,2.54,5.57,1.65,1.29,3.7,1.97,5.79,1.92,2.6.04,5.12-.95,7-2.75,2.15-2.04,3.3-4.92,3.15-7.88.13-4.25-1.49-8.37-4.47-11.4-2.93-3.06-7.02-4.74-11.26-4.61-4.61-.15-9.04,1.78-12.08,5.25-3.25,3.6-4.82,8-4.82,13.47-.03,12.15,9.79,22.03,21.94,22.06h.06c14.14.06,25.65-11.37,25.71-25.51v-.12c.02-3.2-.47-6.38-1.43-9.43-.73-2.36.6-4.87,2.96-5.6,2.31-.71,4.78.54,5.56,2.83,1.26,3.94,1.89,8.06,1.87,12.2.02,19.08-15.43,34.57-34.51,34.59h-.16Z" stroke-width="0"/>
</svg>
