<svg xmlns="http://www.w3.org/2000/svg" viewBox="0 0 540 540">
  <path d="M260.77,287.08c-3.31,0-6-2.69-6-6,0-1.24.38-2.44,1.09-3.45.27-.38.55-.77.84-1.16.9-1.21,1.86-2.37,2.88-3.48.82-.86,1.61-1.64,2.42-2.37l.75-.65c1.55-1.3,3.2-2.49,4.93-3.53,6-3.47,12.76-5.39,19.68-5.61,3.31-.16,6.13,2.4,6.29,5.71s-2.4,6.13-5.71,6.29c-4.95.12-9.79,1.46-14.09,3.9-1.18.73-2.31,1.54-3.37,2.43l-.41.36c-.61.55-1.19,1.11-1.75,1.7-.71.77-1.38,1.57-2,2.42-.25.33-.45.61-.65.89-1.12,1.6-2.95,2.55-4.9,2.55h0Zm-43.77,0c-1.96,0-3.8-.95-4.92-2.56-.19-.28-.39-.56-.6-.84-.65-.88-1.34-1.72-2.08-2.52-.51-.54-1.09-1.1-1.67-1.64l-.4-.33c-1.07-.92-2.22-1.75-3.43-2.48-4.3-2.44-9.13-3.77-14.07-3.89-3.31-.16-5.87-2.98-5.71-6.29s2.98-5.87,6.29-5.71c6.92.21,13.67,2.14,19.66,5.6,1.76,1.05,3.43,2.25,5,3.57.22.19.48.41.72.63.8.73,1.6,1.51,2.37,2.31,1.07,1.13,2.07,2.33,3,3.58l.8,1.11c1.91,2.71,1.25,6.45-1.46,8.36-1.01.71-2.22,1.09-3.45,1.09h-.06Z" fill="#020101"/>
</svg>
