<svg xmlns="http://www.w3.org/2000/svg" viewBox="0 0 540 540">
  <path d="M349.55,286.77c-1.66,0-3-1.34-3-3v-18c0-1.66,1.34-3,3-3s3,1.34,3,3v18c0,1.66-1.34,3-3,3Zm-19.5,0c-1.66,0-3-1.34-3-3v-18c0-1.66,1.34-3,3-3s3,1.34,3,3v18c0,1.66-1.34,3-3,3Z"/>
  <path d="M318.9,290.3c-1.27,0-2.51-.4-3.53-1.15l-23.35-17c-2.63-2.01-3.14-5.78-1.13-8.41,1.95-2.55,5.55-3.12,8.19-1.29l23.35,17c2.68,1.95,3.27,5.7,1.32,8.38-1.13,1.55-2.93,2.47-4.85,2.47h0Zm41.81,0c-3.31,0-6-2.68-6.01-5.99,0-1.92.92-3.73,2.47-4.86l23.35-17c2.63-2.01,6.4-1.5,8.41,1.13s1.5,6.4-1.13,8.41c-.07.05-.14.11-.22.16l-23.35,17c-1.02.75-2.25,1.15-3.52,1.15h0Z" fill="#020101"/>
</svg>
