<svg xmlns="http://www.w3.org/2000/svg" viewBox="0 0 540 540">
  <path d="M311.25,289.18h-.29c-14.93-.72-26.17-7.38-33.4-19.8-1.54-2.94-.4-6.56,2.54-8.1,2.76-1.44,6.17-.53,7.84,2.1,5.12,8.8,12.84,13.33,23.6,13.85,3.31.08,5.94,2.83,5.86,6.15-.08,3.31-2.83,5.94-6.15,5.85v-.05Zm-143.13,0c-3.31.08-6.06-2.55-6.14-5.86-.08-3.31,2.55-6.06,5.86-6.14,10.76-.52,18.48-5,23.6-13.85,1.49-2.96,5.1-4.14,8.06-2.65s4.14,5.1,2.65,8.06c-.1.2-.22.4-.34.59-7.23,12.42-18.46,19.08-33.4,19.8l-.29.05Z" fill="#020101"/>
</svg>
