<svg xmlns="http://www.w3.org/2000/svg" viewBox="0 0 540 540">
  <path d="M349.55,286.77c-1.66,0-3-1.34-3-3v-18c0-1.66,1.34-3,3-3s3,1.34,3,3v18c0,1.66-1.34,3-3,3Zm-19.5,0c-1.66,0-3-1.34-3-3v-18c0-1.66,1.34-3,3-3s3,1.34,3,3v18c0,1.66-1.34,3-3,3Z"/>
  <path d="M361.22,288.3c-3.31,0-6.01-2.67-6.01-5.99,0-2.74,1.85-5.14,4.5-5.82l49.85-13c3.21-.83,6.48,1.1,7.31,4.31.83,3.21-1.1,6.48-4.31,7.31h0l-49.85,13c-.49.12-.99.19-1.49.19h0Zm-42.82,0c-.51,0-1.02-.06-1.51-.19l-49.85-13c-3.21-.83-5.14-4.1-4.31-7.31.83-3.21,4.1-5.14,7.31-4.31l49.85,13c3.21.83,5.14,4.1,4.31,7.31-.68,2.65-3.08,4.51-5.82,4.5h.02Z" fill="#020101"/>
</svg>
