<svg xmlns="http://www.w3.org/2000/svg" viewBox="0 0 540 540">
  <path d="M282.82,359.54h-26.15c-1.69,5.13-2.51,10.49-2.45,15.89,0,8.1,1.52,15.03,4.56,20.78s6.68,8.63,10.92,8.64c4.29,0,7.95-2.88,11-8.64s4.57-12.69,4.56-20.78c.07-5.39-.76-10.76-2.44-15.89Zm-13.12,11.46c5.82-.08,11.41,2.28,15.4,6.52-.54,7.23-2.25,13.26-5.13,18.09s-6.3,7.24-10.27,7.25c-3.91,0-7.3-2.42-10.18-7.25s-4.59-10.86-5.14-18.09c3.97-4.23,9.52-6.59,15.32-6.52Z" fill="#000000"/>
  <path d="M285.1,377.55c-8.19-8.48-21.71-8.72-30.19-.53-.18.17-.36.35-.53.53.55,7.23,2.26,13.26,5.14,18.09s6.27,7.24,10.18,7.25c3.91,0,7.34-2.42,10.27-7.25s4.64-10.86,5.13-18.09Z" fill="#bf0000"/>
  <path d="M269.7,406.88c-5.09,0-9.37-3.27-12.72-9.73-3.18-6-4.8-13.33-4.8-21.72-.06-5.62.8-11.21,2.56-16.54l.47-1.38h29.07l.47,1.38c1.75,5.34,2.61,10.92,2.55,16.54,0,8.45-1.61,15.76-4.8,21.74-3.4,6.44-7.71,9.71-12.8,9.71Zm-11.55-45.3c-1.3,4.5-1.94,9.17-1.89,13.85,0,7.72,1.45,14.39,4.33,19.83,2.63,5.08,5.61,7.55,9.11,7.55s6.52-2.47,9.2-7.55c2.87-5.39,4.33-12.06,4.33-19.83.04-4.68-.6-9.35-1.9-13.85h-23.18Z" fill="#020101"/>
</svg>
