<svg xmlns="http://www.w3.org/2000/svg" viewBox="0 0 540 540">
  <path d="M237.31,361.22c-4.23,1.39-7.86,4.17-10.31,7.88-1.94,2.9-3.02,6.28-3.13,9.77-.27,4.16.78,8.3,3,11.83,2.62,4.31,6.83,7.77,12.63,10.4,7.65,3.41,17.69,5.15,30.12,5.2,12.43.05,22.49-1.53,30.2-4.75,5.86-2.51,10.1-5.92,12.73-10.22,2.26-3.48,3.36-7.59,3.14-11.74-.26-8.14-5.55-15.25-13.27-17.84-4.27-1.55-8.93-1.64-13.26-.26-1.74.53-3.86,1.06-6.37,1.61-4.22,1.05-8.55,1.59-12.9,1.61-5.33-.06-11.79-1.25-19.36-3.58-4.29-1.38-8.91-1.35-13.18.09ZM230.5,388.46c-1.71-2.79-2.53-6.05-2.33-9.32.12-2.74.96-5.39,2.42-7.71,1.49-2.21,3.53-3.99,5.91-5.19,2.36-1.19,4.97-1.81,7.62-1.8,1.74,0,3.46.27,5.11.81l.9.36-8.43,31.73c-5.14-2.15-8.87-5.11-11.2-8.88ZM254.34,366.77c4.35,1.12,8.79,1.84,13.27,2.15l-.18,33.08c-8.61-.24-15.81-1.29-21.6-3.14l8.51-32.09ZM271.91,369.01c4.14-.17,8.26-.77,12.28-1.79l10.57,31.64c-6.21,2-13.88,3.05-23,3.14l.18-33ZM290.37,365.61c3.42-1.08,7.11-1.02,10.49.18,3.35,1.1,6.22,3.32,8.15,6.27,1.49,2.3,2.3,4.97,2.33,7.71.14,3.29-.74,6.54-2.5,9.32-2.04,3.29-5.37,6.01-10,8.16l-10.4-31.1,1.93-.54Z" fill="#020101"/>
  <path d="M244.12,364.44c-2.65,0-5.26.61-7.62,1.8-2.38,1.19-4.42,2.98-5.91,5.19-1.46,2.32-2.3,4.97-2.42,7.71-.2,3.27.62,6.53,2.33,9.32,2.33,3.77,6.06,6.73,11.2,8.88l8.43-31.73-.9-.36c-1.65-.54-3.37-.81-5.11-.81Z" fill="#fff7ea"/>
  <path d="M284.19,367.22c-4.02,1.02-8.14,1.62-12.28,1.79l-.18,33c9.14-.06,16.81-1.11,23-3.14l-10.54-31.65Z" fill="#fff7ea"/>
  <path d="M267.61,368.92c-4.48-.31-8.92-1.03-13.27-2.15l-8.51,32.09c5.79,1.85,12.99,2.9,21.6,3.14l.18-33.08Z" fill="#fff7ea"/>
  <path d="M309,372.06c-1.93-2.95-4.8-5.17-8.15-6.27-3.38-1.2-7.07-1.26-10.49-.18l-2,.54,10.4,31.1c4.67-2.15,8-4.87,10-8.16,1.76-2.78,2.64-6.03,2.5-9.32,0-2.73-.8-5.4-2.26-7.71Z" fill="#fff7ea"/>
</svg>
