<svg xmlns="http://www.w3.org/2000/svg" viewBox="0 0 540 540">
  <path d="M265.81,391.85c2.32,0,3.48-1.15,3.48-3.46v-13.3h-29.37v13.3c0,2.31,1.15,3.46,3.44,3.46h22.45Z" fill="#fefada"/>
  <path d="M265.81,394.3h-22.45c-3.63,0-5.88-2.27-5.88-5.91v-13.3c-.09-1.35.94-2.52,2.29-2.6,1.35-.09,2.52.94,2.6,2.29v13.62c-.17.39,0,.83.39,1,.19.08.41.08.61,0h22.45c1,0,1-.1,1-1v-13.3c-.09-1.35.94-2.52,2.29-2.6,1.35-.09,2.52.94,2.6,2.29v13.62c.03,3.61-2.24,5.91-5.9,5.91Z"/>
  <path d="M296,391.85c2.32,0,3.48-1.15,3.48-3.46v-13.3h-29.37v13.3c0,2.31,1.15,3.46,3.44,3.46h22.45Z" fill="#fefada"/>
  <path d="M296,394.3h-22.45c-3.63,0-5.89-2.27-5.89-5.91v-13.3c-.09-1.35.94-2.52,2.29-2.6,1.35-.09,2.52.94,2.6,2.29v13.62c-.17.39,0,.83.39,1,.19.08.41.08.61,0h22.45c1,0,1-.1,1-1v-13.3c-.09-1.35.94-2.52,2.29-2.6,1.35-.09,2.52.94,2.6,2.29v13.62c.02,3.61-2.25,5.91-5.89,5.91Z"/>
  <path d="M299.73,377.92h-59.73c-7.11.13-12.43-3.24-14.91-9.54-.91-2.3.22-4.91,2.53-5.81,2.3-.91,4.91.22,5.81,2.52.81,2.07,2.11,4,6.42,3.87h59.56c4.31.1,5.61-1.8,6.42-3.87.91-2.3,3.51-3.43,5.81-2.52s3.43,3.51,2.53,5.81c-2.39,6.17-7.52,9.54-14.44,9.54Z"/>
</svg>
