<svg xmlns="http://www.w3.org/2000/svg" viewBox="0 0 540 540">
  <path d="M269.21,360.94c-.1,0-10.55,3.88-19.67,3.91-8.69,0-18.66-3.51-19.82-3.92-9.07-3.19-18.95.64-24,9.26-3.41,5.78-4.83,16,.07,24.8,4.45,8,15.68,17.48,43.95,17.5s39.42-9.56,43.8-17.54c4.14-7.75,4.1-17.07-.11-24.79-5.18-8.64-15.13-12.44-24.22-9.22Zm-59.67,31.45c-3.33-6.05-3.38-13.38-.13-19.47,2.83-4.99,8.1-8.09,13.83-8.15,1.76,0,3.52.3,5.18.88l1,.34-7.69,33.77c-.18,1.12-1.23,1.88-2.35,1.7-.23-.04-.45-.11-.65-.22-3.82-2.04-7.01-5.11-9.19-8.85Zm16.26,9.55l7.39-32.42c.19-1.14,1.27-1.9,2.41-1.71h.05c3.2.81,6.45,1.39,9.73,1.73,1.13.18,1.95,1.18,1.9,2.32l.13,33.22c.06,1.23-.89,2.28-2.12,2.34h-.06c-6.07-.15-12.09-1.04-17.94-2.65-1.16-.42-1.8-1.65-1.49-2.84Zm26.05,3.16l-.12-33.22c-.06-1.15.76-2.16,1.9-2.33,2.98-.3,5.93-.81,8.84-1.51,1.08-.21,2.14.46,2.41,1.53l9.78,31.83c.42,1.21-.19,2.53-1.38,3-6.25,1.86-12.73,2.87-19.25,3-1.23-.03-2.21-1.05-2.18-2.28Zm37.87-12.74c-1.93,3.36-4.68,6.17-8,8.16-.94.58-2.17.29-2.75-.65-.12-.19-.2-.39-.25-.61l-9.42-30.64c-.42-1.19.16-2.5,1.32-3,7.27-2.49,15.29.55,19.09,7.23,3.3,6.08,3.3,13.42,0,19.51Z"/>
  <path d="M228.42,365.65c-1.66-.58-3.42-.88-5.18-.88-5.73.06-11,3.16-13.83,8.15-3.25,6.09-3.2,13.42.13,19.47,2.18,3.74,5.35,6.81,9.17,8.85,1,.54,2.24.17,2.78-.83.11-.2.18-.42.22-.65l7.69-33.77-.98-.34Z" fill="#fff"/>
  <path d="M251.73,371.88l.12,33.22c-.06,1.23.9,2.27,2.13,2.33h.05c6.52-.13,13-1.14,19.25-3,1.19-.47,1.8-1.79,1.38-3l-9.78-31.83c-.27-1.07-1.33-1.74-2.41-1.53-2.91.7-5.86,1.21-8.84,1.51-1.13.17-1.95,1.16-1.9,2.3Z" fill="#fff"/>
  <path d="M233.19,369.52l-7.39,32.42c-.31,1.19.33,2.42,1.49,2.84,5.85,1.61,11.87,2.5,17.94,2.65,1.23-.03,2.21-1.05,2.18-2.28v-.06l-.13-33.22c.05-1.14-.77-2.14-1.9-2.32-3.28-.34-6.53-.92-9.73-1.73-1.13-.22-2.23.52-2.45,1.65v.05Z" stroke="#000" stroke-miterlimit="10"/>
  <path d="M289.69,372.88c-3.8-6.68-11.82-9.72-19.09-7.23-1.16.5-1.74,1.81-1.32,3l9.42,30.64c.24,1.08,1.32,1.75,2.39,1.51.21-.05.42-.13.61-.25,3.32-1.99,6.07-4.8,8-8.16,3.28-6.08,3.28-13.4,0-19.48Z" fill="#fff"/>
</svg>
