<svg xmlns="http://www.w3.org/2000/svg" viewBox="0 0 540 540">
  <path d="M309.75,364.23c-4.24-4.35-10.08-6.76-16.15-6.68h-47.08c-12.6.02-22.79,10.25-22.77,22.85v8.68c.02,12.61,10.24,22.84,22.85,22.86h47c12.61-.03,22.82-10.25,22.85-22.86v-8.68c.08-6.08-2.34-11.93-6.7-16.17Z"/>
  <path d="M245.18,395.98c-.18-.47-.29-.96-.33-1.46,0,.5,0,.98.1,1.46h.23Zm49.66-1.78v-1.12.98c0,.65-.12,1.3-.37,1.91h.29c.06-.59.09-1.19.09-1.78Zm-7.33,7.49c3.8-1.64,6.12-3.55,6.95-5.72.24-.61.37-1.26.37-1.91v-.98c-.31-4.93-2.74-9.17-7.28-12.73-4.88-3.82-10.77-5.74-17.67-5.74s-12.8,1.91-17.69,5.74c-4.55,3.57-6.98,7.82-7.28,12.75v.34c0,.21,0,.42,0,.62v.45c.04.5.15.99.33,1.46.85,2.18,3.17,4.08,6.97,5.72,4.87,2.11,10.76,3.16,17.67,3.16s12.79-1.05,17.63-3.14v-.02Z" fill="#bf0000"/>
</svg>
