<svg xmlns="http://www.w3.org/2000/svg" viewBox="0 0 540 540">
  <path d="M281.31,379.36c-3.69.05-7.24-1.42-9.82-4.07-.58-.58-1.11-1.2-1.58-1.87-.48.67-1.01,1.29-1.59,1.87-5.43,5.42-14.22,5.42-19.64,0-2.6-2.6-4.07-6.13-4.07-9.82.1-1.69,1.54-2.98,3.23-2.88,1.55.09,2.79,1.33,2.88,2.88,0,4.3,3.48,7.78,7.78,7.78s7.78-3.48,7.78-7.78c.03-1.67,1.39-3.01,3.06-3h1.14c1.66-.03,3.02,1.29,3.05,2.95v.05c0,4.3,3.48,7.78,7.78,7.78s7.78-3.48,7.78-7.78c0-1.69,1.37-3.06,3.06-3.06s3.06,1.37,3.06,3.06c-.01,7.67-6.23,13.88-13.9,13.89h0Z"/>
</svg>
