<svg xmlns="http://www.w3.org/2000/svg" viewBox="0 0 540 540">
  <path d="M237.27,405.15c-4.23-1.39-7.86-4.17-10.31-7.89-1.94-2.9-3.02-6.28-3.13-9.77-.26-4.16.79-8.3,3-11.83,2.63-4.3,6.84-7.76,12.64-10.39,7.65-3.41,17.69-5.15,30.12-5.2,12.43-.05,22.49,1.53,30.2,4.75,5.86,2.51,10.1,5.92,12.73,10.22,2.26,3.48,3.36,7.59,3.14,11.74-.25,8.14-5.55,15.25-13.27,17.83-4.27,1.56-8.93,1.65-13.26.27-1.74-.54-3.86-1.07-6.37-1.61-4.22-1.05-8.55-1.6-12.9-1.61-5.33.06-11.79,1.25-19.36,3.58-4.29,1.37-8.91,1.34-13.18-.09Zm-6.81-27.25c-1.71,2.8-2.53,6.05-2.33,9.33.16,5.52,3.37,10.49,8.33,12.9,2.36,1.19,4.97,1.8,7.62,1.79,1.74,0,3.46-.27,5.11-.8l.9-.36-8.43-31.73c-5.14,2.15-8.87,5.11-11.2,8.87Zm41.41,19.45c4.14.18,8.26.78,12.28,1.8l10.57-31.64c-6.21-2-13.87-3.05-23-3.14l.18,33Zm-17.57,2.24c4.35-1.11,8.79-1.83,13.27-2.15l-.18-33.07c-8.61.24-15.81,1.29-21.6,3.14l8.51,32.08Zm34.06.63l2,.54c3.42,1.07,7.1,1.01,10.49-.18,3.35-1.11,6.22-3.32,8.15-6.27,1.48-2.3,2.29-4.97,2.33-7.71.14-3.29-.73-6.55-2.51-9.32-2-3.29-5.33-6.01-10-8.16l-10.46,31.1h0Z" fill="#020101"/>
  <path d="M244.08,401.92c-2.65.01-5.26-.6-7.62-1.79-4.96-2.41-8.17-7.38-8.33-12.9-.2-3.28.62-6.53,2.33-9.33,2.33-3.76,6.07-6.72,11.2-8.87l8.43,31.73-.9.36c-1.65.53-3.38.8-5.11.8Z" fill="#fff7ea"/>
  <path d="M284.15,399.15c-4.02-1.02-8.14-1.62-12.28-1.8l-.18-33c9.14.06,16.81,1.11,23,3.14l-10.54,31.66Z" fill="#fff7ea"/>
  <path d="M267.57,397.44c-4.48.32-8.92,1.04-13.27,2.15l-8.51-32.08c5.79-1.86,12.99-2.91,21.6-3.14l.18,33.07Z" fill="#fff7ea"/>
  <path d="M309,394.31c-1.93,2.95-4.8,5.16-8.15,6.27-3.39,1.19-7.07,1.25-10.49.18l-2-.54,10.4-31.1c4.67,2.15,8,4.87,10,8.16,1.78,2.77,2.65,6.03,2.51,9.32-.02,2.73-.81,5.4-2.27,7.71Z" fill="#fff7ea"/>
</svg>
