<svg xmlns="http://www.w3.org/2000/svg" viewBox="0 0 540 540">
  <path d="M308.16,356.29h-76.37c-6.42,0-11.02,2.56-13.81,7.67-1.89,3.62-2.71,7.69-2.38,11.76.71,9.48,6.11,17.96,16.19,25.44,10.67,8,23.29,12,37.87,12h.55c14.61,0,27.26-4,37.95-12,10.09-7.48,15.47-15.96,16.13-25.44.36-4.07-.47-8.15-2.38-11.76-2.73-5.11-7.31-7.66-13.75-7.67Zm-62.37,4.07h48.38c.07,6.16-2.52,12.06-7.11,16.17-9.63,8.93-24.53,8.93-34.16,0-4.59-4.11-7.18-10.01-7.11-16.17Z" fill="#000000"/>
  <path d="M294.17,360.36h-48.38c-.07,6.16,2.52,12.06,7.11,16.17,9.63,8.93,24.53,8.93,34.16,0,4.59-4.11,7.18-10.01,7.11-16.17Z" fill="#ffffff"/>
</svg>
