<svg xmlns="http://www.w3.org/2000/svg" viewBox="0 0 540 540">
  <path d="M269.48,377.8h-56.13c-2.49,0-4.5-2.01-4.5-4.5s2.01-4.5,4.5-4.5h56.13c2.49,0,4.5,2.01,4.5,4.5s-2.01,4.5-4.5,4.5Z"/>
  <path d="M197.27,390.85c-2.02-.09-3.59-1.81-3.5-3.83.08-1.88,1.58-3.39,3.45-3.5,5.44-.09,9.78-4.57,9.69-10.01-.04-2.41-.96-4.73-2.59-6.5l-.15-.14-.17-.16c-1.77-1.85-4.22-2.89-6.78-2.89-2.03.07-3.72-1.51-3.79-3.54s1.51-3.72,3.54-3.8h.37c4.45.01,8.7,1.82,11.8,5l.41.39.08.08c6.48,6.93,6.11,17.8-.82,24.28-3.12,2.91-7.21,4.56-11.47,4.63l-.06-.02h-.01Z"/>
  <path d="M283.83,390.85h-.06c-9.49-.16-17.06-7.98-16.9-17.47.07-4.25,1.71-8.33,4.61-11.44l.07-.08.43-.4c3.1-3.18,7.35-4.98,11.79-5h.06c2.02.11,3.58,1.83,3.47,3.86-.1,1.88-1.6,3.38-3.47,3.47-2.56,0-5.01,1.04-6.78,2.89l-.18.17-.14.13c-3.67,4.02-3.39,10.26.63,13.93,1.77,1.62,4.07,2.54,6.47,2.58,2.02.11,3.58,1.83,3.47,3.86-.1,1.88-1.6,3.38-3.47,3.47v.03Z"/>
</svg>
