<svg xmlns="http://www.w3.org/2000/svg" viewBox="0 0 540 540">
  <path d="M313.35,382.24c0-11.05-8.95-20-20-20h-47c-11.05,0-20,8.95-20,20v8.67c0,11.05,8.95,20,20,20h47c11.03-.03,19.97-8.97,20-20v-8.67Z" fill="#ffffff"/>
  <path d="M293.35,413.77h-47c-12.62-.02-22.84-10.24-22.86-22.86v-8.67c-.02-12.6,10.18-22.84,22.78-22.86h47.08c6.07-.08,11.91,2.33,16.15,6.68,4.35,4.24,6.78,10.09,6.7,16.17v8.67c-.04,12.61-10.25,22.82-22.86,22.86h0Zm-47-48.69c-9.46-.02-17.13,7.63-17.15,17.09v8.74c.02,9.47,7.68,17.14,17.15,17.16h47c9.46-.03,17.12-7.7,17.15-17.16v-8.67c0-9.47-7.68-17.15-17.15-17.16h-47Z"/>
  <path d="M246.46,411.24c-1.01,0-1.83-.82-1.83-1.83v-47.18c0-1.01.82-1.83,1.83-1.83s1.83.82,1.83,1.83v47.18c0,1.01-.82,1.83-1.83,1.83Z"/>
  <path d="M270,411.24c-1.01,0-1.83-.81-1.84-1.82v-47.19c.08-1.01.96-1.77,1.97-1.7.91.07,1.63.79,1.7,1.7v47.18c0,1.01-.82,1.83-1.83,1.83Z"/>
  <path d="M293.47,411.24c-1.01,0-1.83-.82-1.83-1.83v-47.18c.08-1.01.96-1.77,1.97-1.7.91.07,1.63.79,1.7,1.7v47.18c0,1.01-.82,1.83-1.83,1.83Z"/>
</svg>
