<?xml version="1.0" encoding="UTF-8"?>
<svg id="Layer_1" xmlns="http://www.w3.org/2000/svg" version="1.1" viewBox="0 0 78.8 33.6">
  <!-- Generator: Adobe Illustrator 29.5.0, SVG Export Plug-In . SVG Version: 2.1.0 Build 137)  -->
  <defs>
    <style>
      .st0 {
        fill: #eb8f00;
      }

      .st1 {
        fill: #422b0d;
      }

      .st2 {
        fill: #ed7770;
      }

      .st3 {
        fill: #fff;
      }
    </style>
  </defs>
  <g id="facial_expressions">
    <path class="st1" d="M39.5,6"/>
    <path class="st1" d="M39.5,6"/>
    <path class="st1" d="M78.1,3c-1.4-2.5-4.4-3.6-7.1-2.6-10.3,3-20.9,4.5-31.6,4.4-10.7,0-21.3-1.4-31.6-4.4C5.1-.6,2.1.5.7,3c-1.4,2.5-.4,5.4.8,7.9,6.4,14.1,20.6,22.5,37.9,22.6h.2c17.3,0,31.4-8.5,37.9-22.6,1.1-2.5,2.1-5.4.8-7.9Z"/>
    <path class="st1" d="M39.5,32.3"/>
    <path class="st1" d="M39.5,6.1"/>
    <path class="st1" d="M39.5,6.1"/>
    <path class="st1" d="M39.5,32.3"/>
    <path class="st2" d="M55.4,29.5c-.4-.3-.8-.7-1.1-1-4.1-3.6-9.4-5.5-14.8-5.4-5.6,0-11.1,1.8-15.4,5.3-.4.3-.8.6-1.2,1s-.6.7-.8,1c5.5,2.2,11.4,3.2,17.3,3.2h.2c5.7,0,11.3-1,16.6-3-.2-.4-.4-.7-.7-1.1Z"/>
    <path class="st3" d="M71,.4c-10.3,3-20.9,4.5-31.6,4.4-10.7,0-21.3-1.4-31.6-4.4C5.1-.6,2.1.5.7,3c-.2.4-.4.8-.5,1.2.3.2.7.3,1.2.5,12,6,25.3,9.1,38.8,8.9,12.9.2,25.7-2.7,37.3-8.2.5-.2.9-.4,1.2-.6,0-.7-.3-1.3-.6-1.9-1.4-2.5-4.4-3.6-7.1-2.6Z"/>
    <path class="st0" d="M78.2,3c-1.4-2.5-4.5-3.7-7.2-2.6-10.3,3-20.9,4.5-31.6,4.4-10.7,0-21.3-1.4-31.6-4.4C5.1-.6,2.1.5.7,3c-1.4,2.5-.4,5.4.8,7.9.5,1.1,1.1,2.2,1.7,3.3,0,0-2.1-7.8-.3-10,.6-1,1.7-1.6,2.8-1.6.5,0,.9,0,1.4.2,10.4,3.1,21.3,4.6,32.2,4.6h.3c10.9,0,21.7-1.5,32.2-4.6.4-.1.9-.2,1.4-.2,1.1,0,2.2.7,2.8,1.6,1.8,2.3-.3,10.1-.3,10.1.6-1.1,1.2-2.2,1.8-3.3,1.1-2.5,2.1-5.4.8-7.9Z"/>
  </g>
</svg>