<?xml version="1.0" encoding="UTF-8"?>
<svg id="Layer_1" xmlns="http://www.w3.org/2000/svg" version="1.1" viewBox="0 0 78.8 33.5">
  <!-- Generator: Adobe Illustrator 29.5.0, SVG Export Plug-In . SVG Version: 2.1.0 Build 137)  -->
  <defs>
    <style>
      .st0 {
        fill: #eb8f00;
      }

      .st1 {
        fill: #422b0d;
      }

      .st2 {
        fill: #fff;
      }

      .st3 {
        fill: #b3b3b3;
      }
    </style>
  </defs>
  <g id="facial_expressions">
    <path class="st2" d="M77.7,3.6c-1.4-2.5-4.4-3.6-7.1-2.6-9,2.8-20,3.8-31.1,3.8-10.7,0-21.3-1.4-31.6-4.4C5.2-.6,2.2.5.8,3c-1.4,2.5-.4,5.4.8,7.9,6.5,14.1,20.6,22.6,37.9,22.6h.2c17.3,0,30.9-7.9,37.4-22,1.1-2.5,2.1-5.4.8-7.9Z"/>
    <path class="st1" d="M38.9,6.1"/>
    <path class="st1" d="M38.9,6.1"/>
    <path class="st1" d="M39.5,32.3"/>
    <path class="st1" d="M39.5,6.1"/>
    <path class="st1" d="M39.5,6.1"/>
    <path class="st1" d="M39.5,32.3"/>
  </g>
  <path class="st3" d="M76.9,7.2c0,0-6.2,4.6-17.7,7.6V3.5c-1.3.2-2.7.4-4,.5v11.7c-4.7.9-9.4,1.4-14.1,1.5V4.8h-4v12.4c.4,0,.4,0,0,0h0c-4.6,0-9.2-.5-13.8-1.3V3.7c-1.4-.2-2.7-.4-4-.6v12C7.5,12.3,1.5,7.8,1.5,7.7c-.3-.3-.7-.4-1.2-.4.3,1.3.7,2.5,1.3,3.7.4.8.7,1.5,1.1,2.2,5.2,2.8,10.8,4.8,16.6,6h0v9.9c1.3.6,2.6,1.2,4,1.7v-10.8c4.6.8,9.2,1.2,13.8,1.2h0s0,0,0,0v12.2c.8,0,1.5,0,2.3,0h1.7v-12.3h0,0c4.7,0,9.5-.6,14.1-1.4v11.2c1.4-.5,2.7-1,4-1.6v-10.4c6.1-1.4,12-3.7,17.4-6.8,0-.2.2-.4.3-.6.7-1.5,1.2-3.1,1.4-4.7-.5,0-1,0-1.4.4Z"/>
  <path class="st0" d="M78.2,3c-1.4-2.5-4.5-3.7-7.2-2.6-10.3,3-20.9,4.5-31.6,4.4-10.7,0-21.3-1.4-31.6-4.4C5.1-.6,2.1.5.7,3c-1.4,2.5-.4,5.4.8,7.9.5,1.1,1.1,2.2,1.7,3.3,0,0-2.1-7.8-.3-10,.6-1,1.7-1.6,2.8-1.6.5,0,.9,0,1.4.2,10.4,3.1,21.3,4.6,32.2,4.6h.3c10.9,0,21.7-1.5,32.2-4.6.4-.1.9-.2,1.4-.2,1.1,0,2.2.7,2.8,1.6,1.8,2.3-.3,10.1-.3,10.1.6-1.1,1.2-2.2,1.8-3.3,1.1-2.5,2.1-5.4.8-7.9Z"/>
</svg>