<svg xmlns="http://www.w3.org/2000/svg" viewBox="0 0 200 200">
  <g transform="matrix(0.8,0,0,0.8,19.9984,34.9068)">
    <path d="M158.918 78.006l-0.005 0c-0.012 0.054-9.983 41.375-18.186 54.159-6.452 10.056-28.899 29.684-40.573 29.701-11.671 0.021-34.17-19.539-40.652-29.576-8.242-12.758-18.353-54.042-18.365-54.096h-0.001c-1.298-4.992-1.994-10.231-2.002-15.634C39.082 28.536 66.289 0.92 99.907 0.867c33.621-0.053 60.913 27.476 60.963 61.499C160.879 67.769 160.201 73.01 158.918 78.006z" fill="#f0c7b1"/>
    <path d="M124.597 6.119c18.568 10.001 31.371 30.966 31.404 55.247 0.008 5.403-0.616 10.644-1.796 15.641l-0.005 0c-0.011 0.054-9.185 41.375-16.73 54.159-5.937 10.056-26.588 29.684-37.327 29.701-10.737 0.021-31.437-19.539-37.4-29.576-7.582-12.758-16.885-54.042-16.896-54.096h-0.001c-1.195-4.992-1.835-10.231-1.842-15.634C43.969 37.217 56.775 16.161 75.391 6.126 54.006 15.706 39.096 37.37 39.134 62.56c0.008 5.403 0.704 10.643 2.002 15.634h0.001c0.012 0.054 10.123 41.338 18.365 54.096 6.482 10.037 28.981 29.597 40.652 29.576 11.673-0.018 34.121-19.646 40.573-29.701 8.202-12.784 18.174-54.105 18.186-54.159l0.005 0c1.283-4.997 1.961-10.237 1.952-15.641C160.833 37.238 145.928 15.667 124.597 6.119z" fill="#e8b9a0"/>
    <path d="M158.918 78.006l-0.005 0c-0.012 0.054-9.983 41.375-18.186 54.159-6.452 10.056-28.899 29.684-40.573 29.701-11.671 0.021-34.17-19.539-40.652-29.576-8.242-12.758-18.353-54.042-18.365-54.096h-0.001c-1.298-4.992-1.994-10.231-2.002-15.634C39.082 28.536 66.289 0.92 99.907 0.867c33.621-0.053 60.913 27.476 60.963 61.499C160.879 67.769 160.201 73.01 158.918 78.006z" fill="none" stroke="#c27b55" stroke-width="1.5"/>
  </g>
</svg>
