<svg xmlns="http://www.w3.org/2000/svg" viewBox="0 0 200 200">
  <g transform="matrix(0.8,0,0,0.8,20.1048,35.5051)">
    <path d="M138.275 134.933c-7.56 7.762-25.273 22.52-34.57 25.257-0.809 0.238-6.561 0.241-7.37 0.006-10.402-3.025-26.524-18.002-34.545-25.284-0.698-0.634-1.876-2.14-2.323-2.97-6.875-12.77-18.452-54.948-18.462-54.995-1.3-4.911-1.996-10.066-2.004-15.382C38.949 28.09 66.155 0.919 99.773 0.867c33.621-0.052 60.913 27.033 60.964 60.507 0.009 5.316-0.669 10.473-1.952 15.389-0.015 0.047-11.729 42.121-18.293 55.052-0.606 0.951-1.724 2.531-2.391 3.217z" fill="#f0c7b1"/>
    <path d="M122.923 5.375c19.396 9.496 32.911 30.588 32.944 55.131 0.009 5.316-0.615 10.473-1.796 15.389-0.013 0.047-10.79 42.121-16.829 55.053-0.398 0.852-1.426 2.432-2.039 3.117-6.955 7.762-23.252 22.52-31.805 25.258-0.744 0.238-6.036 0.24-6.781 0.006-9.57-3.025-24.402-18.002-31.782-25.285-0.642-0.633-1.726-2.139-2.137-2.969-6.325-12.77-16.976-54.948-16.985-54.996-1.196-4.911-1.836-10.066-1.844-15.382C43.835 36.099 57.351 14.919 76.79 5.389c-22.202 9.066-37.828 30.804-37.789 56.176 0.008 5.316 0.704 10.471 2.004 15.382 0.01 0.047 11.587 42.226 18.462 54.995 0.447 0.83 1.625 2.336 2.323 2.97 8.021 7.282 24.144 22.259 34.545 25.284 0.809 0.235 6.562 0.232 7.37-0.006 9.297-2.737 27.011-17.495 34.57-25.257 0.667-0.686 1.784-2.266 2.217-3.118 6.564-12.932 18.278-55.005 18.293-55.052 1.283-4.916 1.961-10.072 1.952-15.389C160.699 36.059 145.075 14.408 122.923 5.375z" fill="#e8b9a0"/>
    <path d="M138.275 134.933c-7.56 7.762-25.273 22.52-34.57 25.257-0.809 0.238-6.561 0.241-7.37 0.006-10.402-3.025-26.524-18.002-34.545-25.284-0.698-0.634-1.876-2.14-2.323-2.97-6.875-12.77-18.452-54.948-18.462-54.995-1.3-4.911-1.996-10.066-2.004-15.382C38.949 28.09 66.155 0.919 99.773 0.867c33.621-0.052 60.913 27.033 60.964 60.507 0.009 5.316-0.669 10.473-1.952 15.389-0.015 0.047-11.729 42.121-18.293 55.052-0.606 0.951-1.724 2.531-2.391 3.217z" fill="none" stroke="#c27b55" stroke-width="1.5"/>
  </g>
</svg>
