<?xml version="1.0" encoding="UTF-8"?>
<svg id="Layer_1" xmlns="http://www.w3.org/2000/svg" version="1.1" viewBox="0 0 23.6 14.5">
  <!-- Generator: Adobe Illustrator 29.5.0, SVG Export Plug-In . SVG Version: 2.1.0 Build 137)  -->
  <defs>
    <style>
      .st0 {
        fill: #422b0d;
      }
    </style>
  </defs>
  <g id="facial_expressions">
    <g id="smiling-eyes-grinning-face">
      <g id="eyes">
        <path class="st0" d="M16.4,12.9l-.2-.2-.4-.5-.5-.6c-.2-.2-.5-.5-.7-.8s-.6-.5-.8-.7c-.3-.2-.5-.4-.8-.5-.2-.1-.4-.2-.7-.2,0,0-.1,0-.2,0h-.2c.1,0-.3,0,.3,0h-.5c-.2,0,0,0,0,0h0c0,0,0,0,0,0h-.1c-.2,0-.5.1-.7.2-.3.2-.6.3-.8.5-.3.2-.6.5-.8.7-.5.5-1,1-1.3,1.4l-.5.6-.2.3c-1.4,1.6-3.9,1.9-5.6.6C.4,12.9-.2,11.5,0,10.2c0,0,0-.4.3-1.1.3-1,.7-2,1.2-2.9.8-1.5,2-2.8,3.4-3.8.9-.7,1.9-1.3,3-1.7.3-.1.6-.2.9-.3.3,0,.7-.2,1-.2h.6c0,0,.5-.2.5-.2h1.8c.3,0,.7,0,1,.1.6.1,1.3.3,1.9.5,1.1.4,2.1,1,3,1.7,1.4,1,2.5,2.3,3.4,3.8.3.5.6,1.1.8,1.6.2.5.3.9.5,1.4,0,.2.1.5.2.7v.2c.3,2-1.1,3.9-3.2,4.2,0,0,0,0-.2,0-1.5.2-2.9-.4-3.8-1.5Z"/>
      </g>
    </g>
  </g>
</svg>