<?xml version="1.0" encoding="UTF-8"?>
<svg id="a" data-name="Layer 1" xmlns="http://www.w3.org/2000/svg" xmlns:xlink="http://www.w3.org/1999/xlink" viewBox="0 0 128 128">
  <defs>
    <style>
      .e {
        fill: url(#c);
      }

      .f {
        fill: #eb8f00;
      }
    </style>
    <radialGradient id="c" cx="64" cy="-1273.66" fx="64" fy="-1273.66" r="62.55" gradientTransform="translate(-.31 -1263.88) scale(1 -1.04)" gradientUnits="userSpaceOnUse">
      <stop offset=".5" stop-color="#fde030"/>
      <stop offset=".92" stop-color="#f7c02b"/>
      <stop offset="1" stop-color="#f4a223"/>
    </radialGradient>
  </defs>
  <g id="b" data-name="gold">
    <path id="d" data-name="face" class="e" d="M64,128C33.21,128,0,107.96,0,64S33.21,0,64,0c17.1,0,32.88,5.84,44.58,16.49,12.69,11.68,19.42,28.16,19.42,47.51s-6.73,35.72-19.42,47.4c-11.7,10.65-27.59,16.6-44.58,16.6Z"/>
    <path class="f" d="M116.84,25.95c5.88,9.85,8.95,21.57,8.95,34.61,0,19.35-6.73,35.72-19.42,47.4-11.7,10.65-27.59,16.6-44.58,16.6-19.93,0-40.83-8.42-53.16-26.26,11.87,20.22,34.21,29.7,55.37,29.7,16.99,0,32.88-5.95,44.58-16.6,12.69-11.68,19.42-28.05,19.42-47.4,0-14.59-3.83-27.55-11.16-38.05Z"/>
  </g>
</svg>