<?xml version="1.0" encoding="UTF-8"?>
<svg id="a" data-name="Layer 1" xmlns="http://www.w3.org/2000/svg" xmlns:xlink="http://www.w3.org/1999/xlink" viewBox="0 0 128 128">
  <defs>
    <style>
      .f {
        fill: url(#d);
      }

      .g {
        fill: #792d85;
      }
    </style>
    <radialGradient id="d" cx="63.63" cy="-2461.29" fx="63.63" fy="-2461.29" r="51.53" gradientTransform="translate(-5.9 -2742.02) scale(1.09 -1.14)" gradientUnits="userSpaceOnUse">
      <stop offset="0" stop-color="#fc01fc"/>
      <stop offset="0" stop-color="#f0f"/>
      <stop offset=".86" stop-color="#df0be2"/>
      <stop offset="1" stop-color="#8e2698"/>
      <stop offset="1" stop-color="#792d85"/>
    </radialGradient>
  </defs>
  <g id="b" data-name="faces">
    <g id="c" data-name="devil-happy-face">
      <path class="g" d="M3.83.69c10.08,10.73,23.33,19.42,35.93,19.05,1.2-.03,2.21.96,2.24,2.22.01.37-.07.72-.21,1.05-5.54,11.89-17.72,23.78-28.84,22.15-.52-.07-1-.35-1.34-.78C4.36,35.31-.73,17.18.09,2.11.17.85,1.23-.1,2.43,0c.52.05,1.03.29,1.4.69Z"/>
      <path class="g" d="M124.19.98c-10.08,10.71-23.33,19.39-35.92,19.05-1.2-.03-2.21.96-2.24,2.22-.01.37.07.72.21,1.05,5.54,11.89,17.72,23.78,28.84,22.15.51-.08.99-.35,1.32-.78,7.24-9.07,12.33-27.2,11.52-42.28-.1-1.26-1.16-2.19-2.36-2.08-.51.05-1,.27-1.37.66Z"/>
      <path id="e" data-name="face" class="f" d="M63.6,128c-27.57,0-57.31-18.09-57.31-57.78S36.03,12.43,63.6,12.43c15.29,0,29.49,5.28,39.92,14.85,11.36,10.55,17.39,25.43,17.39,42.9s-6.03,32.24-17.39,42.79c-10.47,9.65-24.71,15.03-39.92,15.03Z"/>
    </g>
    <path class="g" d="M111.25,36.06c5.41,9.4,8.18,20.21,8,31.18,0,17.44-6.02,32.19-17.36,42.71-10.45,9.6-24.65,14.96-39.85,14.96-17.8,0-36.51-7.58-47.5-23.66,10.61,18.28,30.58,26.76,49.48,26.76,15.18,0,29.38-5.36,39.84-14.96,11.35-10.52,17.36-25.27,17.36-42.71,0-13.14-3.42-24.82-9.96-34.28Z"/>
  </g>
</svg>