<?xml version="1.0" encoding="UTF-8"?>
<svg id="a" data-name="Layer 1" xmlns="http://www.w3.org/2000/svg" viewBox="0 0 128 128">
  <defs>
    <style>
      .d {
        fill: #90a4ae;
      }

      .e {
        fill: #c62828;
      }
    </style>
  </defs>
  <g id="b" data-name="facial expressions">
    <g id="c" data-name="robot">
      <path class="e" d="M8.85,52.17c-4.88.01-8.85,3.98-8.85,8.86v41.02c.01,4.88,3.97,8.84,8.85,8.85h5.93v-58.79l-5.93.05Z"/>
      <path class="e" d="M119.15,52.17c4.88.01,8.85,3.98,8.85,8.86v41.02c-.01,4.88-3.97,8.85-8.85,8.86h-5.93v-58.79l5.93.04Z"/>
      <path class="d" d="M116.42,53.62l-.13-10.69c-.03-4.6-3.77-8.3-8.37-8.28h-40.8v-14.33c5.46-1.81,8.43-7.7,6.63-13.16-1.81-5.46-7.7-8.43-13.16-6.63s-8.43,7.7-6.63,13.16c1.04,3.13,3.5,5.6,6.63,6.63v14.39H19.81c-4.57.01-8.28,3.71-8.32,8.28v76.72c.03,4.57,3.74,8.27,8.32,8.29h88.12c4.6.01,8.34-3.7,8.37-8.29v-7.88h.13v-58.21Z"/>
      <path class="e" d="M63.87,14.7c-2.36,0-4.28-1.91-4.28-4.28s1.91-4.28,4.28-4.28,4.28,1.91,4.28,4.28-1.91,4.28-4.28,4.28Z"/>
    </g>
  </g>
</svg>