<?xml version="1.0" encoding="UTF-8"?>
<svg id="a" data-name="Layer 4" xmlns="http://www.w3.org/2000/svg" xmlns:xlink="http://www.w3.org/1999/xlink" viewBox="0 0 100 128">
  <defs>
    <style>
      .c {
        fill: url(#b);
      }

      .d {
        fill: #8abfd1;
      }
    </style>
    <radialGradient id="b" cx="49.88" cy="91.84" fx="49.88" fy="91.84" r="64.94" gradientTransform="translate(-.52 181.84) scale(1.01 -1.16)" gradientUnits="userSpaceOnUse">
      <stop offset=".4" stop-color="#e1e7ea"/>
      <stop offset=".99" stop-color="#d6e1e6"/>
    </radialGradient>
  </defs>
  <path class="c" d="M98.28,67.82c.58-3.64,2.96-16.59.79-29.3-1.38-8.1-6.17-18.67-11.52-24.01C77.23,4.19,62.86,0,49.65,0S22.78,4.19,12.47,14.51C7.12,19.85,2.33,30.43.95,38.52c-2.17,12.72.21,25.67.79,29.3.78,4.96-1.28,10.44-1.69,15.38-.43,5.38,1.97,9.55,6.27,12.5,3.59,2.46,7.77,3.77,11.65,5.68,4.62,2.27.42,10.48,2.13,14.61.86,2.09,2.74,3.53,4.68,4.54,2.47,1.3,5.3,2.11,7.98,1.4-.4.11.77,2.59,2.31,3.61,1.41.92,3.16,1.86,4.79,2.23,3.23.75,6.44-.51,8.44-1.6,1.09-.6,2.36-.6,3.45,0,2,1.09,5.2,2.35,8.44,1.6,2.43-.57,4.61-2.09,6.16-4.09.73-.94,1.86-1.45,3-1.37,3.39.23,8.59-1.23,10.84-6.64,1.26-3.01-.01-6.55.83-9.7,1.42-5.33,6.4-6.66,10.4-9.14,5.3-3.29,8.44-6.97,8.58-12.15.14-5.5-2.38-12.62-1.72-16.88Z"/>
  <path class="d" d="M28.4,122.07c-1.21-.25-2.36-.64-3.39-1.44.86-.21,1.72-.45,2.51-.85,1.96-1.03,1.91-2.7,2.34-4.75.37-1.79.74-3.58,1.17-5.37.29-1.19,1.04-2.34,2.2-2.17,1.45.21,1.6,1.3,1.35,2.95-.23,1.54-1.99,11.66-1.99,11.67-.08.46-3,.15-3.28.11-.3-.04-.61-.1-.91-.16Z"/>
  <path class="d" d="M72.26,122.07c1.21-.25,2.36-.64,3.39-1.44-.86-.21-1.72-.45-2.51-.85-1.96-1.03-1.91-2.7-2.34-4.75-.37-1.79-.74-3.58-1.17-5.37-.29-1.19-1.04-2.34-2.2-2.17-1.45.21-1.6,1.3-1.35,2.95.23,1.54,1.99,11.66,1.99,11.67.08.46,3,.15,3.28.11.3-.04.61-.1.91-.16Z"/>
  <path class="d" d="M45.42,127.42s2.29-3.26,2.37-5.49c.15-3.98.36-9.36.36-12.47,0-1.24.71-2.19,1.89-2.19s1.83.83,1.83,2.07c0,.05.27,7.29.27,12.32,0,2.33,2.47,5.75,2.47,5.75-1.01-.48-2.78-1.41-4.6-1.32-2.3.12-4.6,1.33-4.6,1.33Z"/>
</svg>